<svg width="836.8134" height="771.8134000000001" xmlns="http://www.w3.org/2000/svg" xmlns:undefined="http://sodipodi.sourceforge.net/DTD/sodipodi-0.dtd" version="1.1">
 <defs id="defs6">
  <clipPath id="clipPath16" clipPathUnits="userSpaceOnUse">
   <path id="path14" d="m219.41041,824.79002l1133.86,0l0,-1133.86l-1133.86,0l0,1133.86z"/>
  </clipPath>
 </defs>
 <g>
  <title>Layer 1</title>
  <g id="svg_2">
   <g transform="matrix(0.397982, 0, 0, -0.397982, 198.426, 609.328)" id="g30">
    <path fill-rule="nonzero" fill="#2468a4" id="path32" d="m916.5666,635.45534c32.59,-10.942 57.007,-41.64 57.007,-80.733c0,-41.085 -30.792,-72.834 -58.774,-81.228l-0.518,-5.106c44.25,6.875 77.625,39.853 77.625,86.167c0,44.538 -34.125,80.583 -76.875,86.333l1.535,-5.433z"/>
   </g>
   <g id="svg_1">
    <g transform="matrix(0.397982, 0, 0, -0.397982, 198.426, 609.328)" id="g18">
     <path fill-rule="nonzero" fill="#2468a4" id="path20" d="m374.23888,179.84247c0,0 -73.333,18 -152.667,93.333c-79.333,75.333 -96.595,180.001 -102.666,208.667c0,0 -12.001,64 0,164.5c4.5,42 39,141.5 101.5,201c39,38.5 82,69.5 149.5,93.5c42.5,14.5 79.181,17.794 84.167,18.167c49.167,3.666 92.833,-0.5 92.833,-0.5c0,0 -29,-33.667 -27.5,-73.167c0,0 -2,-40.5 18,-71c20,-30.5 51,-51 66.5,-55l0,-229.5l-105,-102l0,-265c0,0 -26,-1.333 -42,0l0,428.666l-65.666,63.667c0,0 16,35.667 -5.334,73.667c-21.333,38 -64,49.333 -93.333,42.666c-29.333,-6.666 -56.333,-30.333 -64.333,-56.666c-8,-26.334 -7.334,-56 14.666,-83.334c22,-27.333 63.001,-38.666 93.334,-27.666l38.666,-37.334l-0.667,-386.666z"/>
    </g>
    <g transform="matrix(0.397982, 0, 0, -0.397982, 198.426, 609.328)" id="g22">
     <path fill-rule="nonzero" fill="#2468a4" id="path24" d="m712.40639,880.59247c0,-36.037 -29.102,-65.25 -65,-65.25c-35.898,0 -65,29.213 -65,65.25c0,36.037 29.102,65.25 65,65.25c35.898,0 65,-29.213 65,-65.25"/>
    </g>
    <g transform="matrix(0.397982, 0, 0, -0.397982, 198.426, 609.328)" id="g26">
     <path fill-rule="nonzero" fill="#2468a4" id="path28" d="m775.15639,882.84247c0,0 3.25,-41 -25.25,-77.5c-28.5,-36.5 -61.5,-46 -61.5,-46l0,-254.5l-107.75,-111.75l0,-229c0,0 7.25,-1.75 47.5,7.75l0,184l176.25,175.75c0,0 -13.174,35.205 7,69.5c12.5,21.25 29.75,31.5 45.75,38.75c16,7.25 43.875,8.125 57.75,4.625c0,0 -3,47.125 -32.5,107.625c-29.5,60.5 -78.75,111.75 -107.25,130.75"/>
    </g>
    <g transform="matrix(0.397982, 0, 0, -0.397982, 198.426, 609.328)" id="g34">
     <path fill-rule="nonzero" fill="#2468a4" id="path36" d="m858.23939,476.00897l-148.667,-150.167l0,-127.5c0,0 62.084,26.5 120.834,93c0,0 67.5,73.64 84,179.57l0,1.055c0,0 -30.334,-3.166 -56.167,4.042"/>
    </g>
   </g>
  </g>
 </g>
</svg>