<svg width="2800.8134" height="1511.8134" xmlns="http://www.w3.org/2000/svg" xmlns:undefined="http://sodipodi.sourceforge.net/DTD/sodipodi-0.dtd" version="1.1">
 <defs id="defs6">
  <clipPath id="clipPath16" clipPathUnits="userSpaceOnUse">
   <path id="path14" d="m0,1133.86l1133.86,0l0,-1133.86l-1133.86,0l0,1133.86z"/>
  </clipPath>
 </defs>
 <g>
  <title>Layer 1</title>
  <g id="svg_2">
   <g transform="matrix(1.73405, 0, 0, -1.73405, -84.4688, 1920.67)" id="g38">
    <path fill-rule="nonzero" fill="#ffffff" id="path40" d="m753.21939,628.32232c-23.125,-0.011 -31.875,18.25 -31.875,43c0,25.125 10.125,43 31.875,43c23.5,0 31.875,-18.125 31.875,-43c0,-25.125 -7.863,-42.989 -31.875,-43m-0.168,120.25c-43.957,0 -77.043,-23.5 -77.042,-77.125c0.002,-45.126 24.585,-76.625 77.043,-76.625c57.292,0 77.042,34.307 77.042,76.625c0,49.875 -28.751,77.125 -77.043,77.125"/>
   </g>
   <g transform="matrix(1.73405, 0, 0, -1.73405, -84.4688, 1920.67)" id="g42">
    <path fill-rule="nonzero" fill="#ffffff" id="path44" d="m1007.71939,628.32232c-23.125,-0.011 -31.875,18.25 -31.875,43c0,25.125 10.125,43 31.875,43c23.5,0 31.875,-18.125 31.875,-43c0,-25.125 -7.863,-42.989 -31.875,-43m-0.168,120.25c-43.957,0 -77.043,-23.5 -77.042,-77.125c0.002,-45.126 24.585,-76.625 77.043,-76.625c57.292,0 77.042,34.307 77.042,76.625c0,49.875 -28.751,77.125 -77.043,77.125"/>
   </g>
   <g transform="matrix(1.73405, 0, 0, -1.73405, -84.4688, 1920.67)" id="g46">
    <path fill-rule="nonzero" fill="#ffffff" id="path48" d="m1291.21939,628.32232c-23.125,-0.011 -31.875,18.25 -31.875,43c0,25.125 10.125,43 31.875,43c23.5,0 31.875,-18.125 31.875,-43c0,-25.125 -7.863,-42.989 -31.875,-43m-0.168,120.25c-43.957,0 -77.043,-23.5 -77.042,-77.125c0.001,-45.126 24.585,-76.625 77.042,-76.625c57.293,0 77.043,34.307 77.043,76.625c0,49.875 -28.751,77.125 -77.043,77.125"/>
   </g>
   <g transform="matrix(1.73405, 0, 0, -1.73405, -84.4688, 1920.67)" id="g50">
    <path fill-rule="nonzero" fill="#ffffff" id="path52" d="m810.84439,712.05661c0,-1.096 0.888,-1.984 1.984,-1.984l135.782,0c1.096,0 1.984,0.888 1.984,1.984l0,32.031c0,1.096 -0.888,1.985 -1.984,1.985l-135.782,0c-1.096,0 -1.984,-0.889 -1.984,-1.985l0,-32.031z"/>
   </g>
   <g transform="matrix(1.73405, 0, 0, -1.73405, -84.4688, 1920.67)" id="g54">
    <path fill-rule="nonzero" fill="#ffffff" id="path56" d="m903.84439,715.82232c0,1.657 -1.343,3 -3,3l-40,0c-1.657,0 -3,-1.343 -3,-3l0,-116.479c0,-1.657 1.343,-3 3,-3l40,0c1.657,0 3,1.343 3,3l0,116.479z"/>
   </g>
   <g transform="matrix(1.73405, 0, 0, -1.73405, -84.4688, 1920.67)" id="g58">
    <path fill-rule="nonzero" fill="#ffffff" id="path60" d="m1239.30338,597.57232c-0.333,0.459 -55.209,90.583 -55.209,90.583c0,0 -0.656,0.667 -0.625,1.542c0.031,0.875 0.844,2 1.156,2.313c0.313,0.312 51.386,52.812 51.386,52.812c0,0 0.989,0.969 -0.042,0.938c-1.031,-0.032 -59.437,0 -59.437,0l-46.938,-54.938c0,0 -0.666,-0.895 -1.333,-0.916c-0.667,-0.021 -0.667,1.125 -0.667,1.208l0,53.958c0,0.553 -0.447,1 -1,1l-43.513,0c-0.552,0 -1,-0.447 -1,-1l0,-147.25c0,-0.553 0.448,-1 1,-1l43.513,0c0.553,0 1,0.447 1,1l0,36.167l23.291,23.5c0,0 0.751,1 1.709,0.75c0.958,-0.25 1.166,-1.667 1.166,-1.667l30.334,-59.75l54.501,0c0,0 1.041,0.291 0.708,0.75"/>
   </g>
   <g transform="matrix(1.73405, 0, 0, -1.73405, -84.4688, 1920.67)" id="g62">
    <path fill-rule="nonzero" fill="#ffffff" id="path64" d="m1506.84439,746.32232l-40.25,0c-0.553,0 -1,-0.447 -1,-1l0,-78.531c-0.176,-0.074 -0.352,-0.128 -0.524,-0.134c-1.878,-0.063 -3.194,0.872 -3.194,0.872l-53.827,78.015c-0.059,0.25 -0.203,0.457 -0.411,0.595l-0.169,0.246l0,-0.138c-0.116,0.047 -0.242,0.075 -0.375,0.075l-40.25,0c-0.553,0 -1,-0.447 -1,-1l0,-148c0,-0.553 0.447,-1 1,-1l40.25,0c0.553,0 1,0.447 1,1l0,79.028c0.066,0.013 0.133,0.033 0.198,0.034c1.885,0.063 3.204,-0.875 3.204,-0.875l54.159,-78.488c0.06,-0.188 0.171,-0.345 0.322,-0.468l0.117,-0.169l0,0.091c0.149,-0.089 0.313,-0.153 0.5,-0.153l40.25,0c0.553,0 1,0.447 1,1l0,148c0,0.553 -0.447,1 -1,1"/>
   </g>
  </g>
  <g id="svg_3">
   <g transform="matrix(0.831538, 0, 0, -0.831538, 4.18802, 1032.73)" id="g18">
    <path fill-rule="nonzero" fill="#ffffff" id="path20" d="m671.55282,-48.63444c0,0 -73.333,18 -152.667,93.333c-79.333,75.333 -96.595,180.001 -102.666,208.667c0,0 -12.001,64 0,164.5c4.5,42 39,141.5 101.5,201c39,38.5 82,69.5 149.5,93.5c42.5,14.5 79.181,17.794 84.167,18.167c49.167,3.666 92.833,-0.5 92.833,-0.5c0,0 -29,-33.667 -27.5,-73.167c0,0 -2,-40.5 18,-71c20,-30.5 51,-51 66.5,-55l0,-229.5l-105,-102l0,-265c0,0 -26,-1.333 -42,0l0,428.666l-65.666,63.667c0,0 16,35.667 -5.334,73.667c-21.333,38 -64,49.333 -93.333,42.666c-29.333,-6.666 -56.333,-30.333 -64.333,-56.666c-8,-26.334 -7.334,-56 14.666,-83.334c22,-27.333 63.001,-38.666 93.334,-27.666l38.666,-37.334l-0.667,-386.666z"/>
   </g>
   <g transform="matrix(0.831538, 0, 0, -0.831538, 4.18802, 1032.73)" id="g22">
    <path fill-rule="nonzero" fill="#ffffff" id="path24" d="m1009.72033,652.11556c0,-36.037 -29.102,-65.25 -65,-65.25c-35.898,0 -65,29.213 -65,65.25c0,36.037 29.102,65.25 65,65.25c35.898,0 65,-29.213 65,-65.25"/>
   </g>
   <g transform="matrix(0.831538, 0, 0, -0.831538, 4.18802, 1032.73)" id="g26">
    <path fill-rule="nonzero" fill="#ffffff" id="path28" d="m1072.47033,654.36556c0,0 3.25,-41 -25.25,-77.5c-28.5,-36.5 -61.5,-46 -61.5,-46l0,-254.5l-107.75,-111.75l0,-229c0,0 7.25,-1.75 47.5,7.75l0,184l176.25,175.75c0,0 -13.174,35.205 7,69.5c12.5,21.25 29.75,31.5 45.75,38.75c16,7.25 43.875,8.125 57.75,4.625c0,0 -3,47.125 -32.5,107.625c-29.5,60.5 -78.75,111.75 -107.25,130.75"/>
   </g>
   <g transform="matrix(0.831538, 0, 0, -0.831538, 4.18802, 1032.73)" id="g30">
    <path fill-rule="nonzero" fill="#ffffff" id="path32" d="m1213.88055,410.43233c32.59,-10.942 57.007,-41.64 57.007,-80.733c0,-41.085 -30.792,-72.834 -58.774,-81.228l-0.518,-5.106c44.25,6.875 77.625,39.853 77.625,86.167c0,44.538 -34.125,80.583 -76.875,86.333l1.535,-5.433z"/>
   </g>
   <g transform="matrix(0.831538, 0, 0, -0.831538, 4.18802, 1032.73)" id="g34">
    <path fill-rule="nonzero" fill="#ffffff" id="path36" d="m1155.55334,247.53206l-148.667,-150.167l0,-127.5c0,0 62.084,26.5 120.834,93c0,0 67.5,73.64 84,179.57l0,1.055c0,0 -30.334,-3.166 -56.167,4.042"/>
   </g>
  </g>
  <path id="svg_5" d="m1567.27941,376.85996l0.56913,0l0.17587,-0.54067l0.17587,0.54067l0.56913,0l-0.46044,0.33415l0.17588,0.54067l-0.46044,-0.33416l-0.46044,0.33416l0.17588,-0.54067l-0.46044,-0.33415z" stroke="#000" fill="#ffffff"/>
  <path id="svg_6" d="m2591.76135,406.34143l0.56913,0l0.17587,-0.54067l0.17587,0.54067l0.56913,0l-0.46044,0.33415l0.17588,0.54067l-0.46044,-0.33416l-0.46044,0.33416l0.17588,-0.54067l-0.46044,-0.33415z" stroke="#000" fill="#ffffff"/>
  <path id="svg_7" d="m3022.9281,347.37845l0.56913,0l0.17587,-0.54067l0.17587,0.54067l0.56913,0l-0.46044,0.33415l0.17588,0.54067l-0.46044,-0.33416l-0.46044,0.33416l0.17588,-0.54067l-0.46044,-0.33415z" stroke="#000" fill="#ffffff"/>
  <path id="svg_8" d="m3546.22448,306.8414l0.56913,0l0.17587,-0.54067l0.17587,0.54067l0.56913,0l-0.46044,0.33415l0.17588,0.54067l-0.46044,-0.33416l-0.46044,0.33416l0.17588,-0.54067l-0.46044,-0.33415z" stroke="#000" fill="#ffffff"/>
  <path id="svg_9" d="m3118.74304,52.56353l0.56913,0l0.17587,-0.54067l0.17587,0.54067l0.56913,0l-0.46044,0.33415l0.17588,0.54067l-0.46044,-0.33416l-0.46044,0.33416l0.17588,-0.54067l-0.46044,-0.33415z" stroke="#000" fill="#ffffff"/>
  <path id="svg_11" d="m3177.70617,152.06356l0.56913,0l0.17587,-0.54067l0.17587,0.54067l0.56913,0l-0.46044,0.33415l0.17588,0.54067l-0.46044,-0.33416l-0.46044,0.33416l0.17588,-0.54067l-0.46044,-0.33415z" stroke="#000" fill="#ffffff"/>
 </g>
</svg>